<?xml version="1.0" encoding="utf-8"?>
<!-- Generator: Adobe Illustrator 18.0.0, SVG Export Plug-In . SVG Version: 6.00 Build 0)  -->
<!DOCTYPE svg PUBLIC "-//W3C//DTD SVG 1.1//EN" "http://www.w3.org/Graphics/SVG/1.1/DTD/svg11.dtd">
<svg version="1.1" id="圖層_1" xmlns:sketch="http://www.bohemiancoding.com/sketch/ns"
	 xmlns="http://www.w3.org/2000/svg" xmlns:xlink="http://www.w3.org/1999/xlink" x="0px" y="0px" viewBox="0 0 200 200"
	 enable-background="new 0 0 200 200" xml:space="preserve">
<title>Facebook</title>
<description>Created with Sketch (http://www.bohemiancoding.com/sketch)</description>
<g id="Page-1" sketch:type="MSPage">
	<path id="Facebook" sketch:type="MSShapeGroup" fill="#FFFFFF" d="M80.3,198.1C34.5,188.9,0,148.5,0,100C0,44.8,44.8,0,100,0
		s100,44.8,100,100c0,51.8-39.4,94.5-89.9,99.5v-36.7v-37.3l14.4-0.1l14.4-0.1l0.4-9.9c0.3-5.5,0.5-11.6,0.6-13.5l0.1-3.5h-15h-15
		l0.1-12.6c0.1-12.1,0.1-12.7,1.1-14.4c2.1-3.7,4.9-4.4,18.4-4.4h9.7l0.3-12.4c0.2-6.8,0.2-12.3,0.1-12.4c-0.5-0.5-9.4-1-17.1-1.1
		c-9.4,0-14,0.5-19.5,2.4c-10.8,3.7-18,11-21.5,21.7c-0.9,2.6-1,4.1-1.1,18.1l-0.1,15.2H70.3H60v13.5v13.6h10.4h10.3l-0.3,36.9
		C80.2,179,80.2,193.3,80.3,198.1z"/>
</g>
</svg>
