<?xml version="1.0" encoding="utf-8"?>
<!-- Generator: Adobe Illustrator 18.0.0, SVG Export Plug-In . SVG Version: 6.00 Build 0)  -->
<!DOCTYPE svg PUBLIC "-//W3C//DTD SVG 1.1//EN" "http://www.w3.org/Graphics/SVG/1.1/DTD/svg11.dtd">
<svg version="1.1" id="圖層_1" xmlns:sketch="http://www.bohemiancoding.com/sketch/ns"
	 xmlns="http://www.w3.org/2000/svg" xmlns:xlink="http://www.w3.org/1999/xlink" x="0px" y="0px" viewBox="0 0 200 200"
	 enable-background="new 0 0 200 200" xml:space="preserve">
<title>Twitter</title>
<description>Created with Sketch (http://www.bohemiancoding.com/sketch)</description>
<g id="Page-1" sketch:type="MSPage">
	<path id="Twitter" sketch:type="MSShapeGroup" fill="#FFFFFF" d="M100,0C44.8,0,0,44.8,0,100s44.8,100,100,100s100-44.8,100-100
		S155.2,0,100,0z M129.7,46.5c4.8,0.9,10.8,3.6,13.4,6.2l2.1,2l4.1-1.1c2.3-0.6,5.9-1.8,7.9-2.7c2.1-0.9,4-1.6,4.1-1.4
		c0.7,0.7-3.5,6.6-7.1,10l-3.9,3.6l3.4-0.5c1.9-0.3,5.3-1.1,7.3-1.8c2.3-0.8,3.8-1,3.8-0.6c0,0.4-2.7,3.4-6,6.7l-5.9,5.9l-0.5,6.8
		c-1.5,20.9-9,38-23.1,52.3c-11,11.2-23.7,18-38.9,20.9c-6.9,1.3-19.4,1.7-25.3,1c-7.2-1-16.2-3.7-23.7-7.2l-6.6-3.2l7-0.5
		c8.3-0.5,14.1-1.9,20.7-5c4.9-2.3,11.4-6.3,10.9-6.8c-0.2-0.2-2.1-0.7-4.3-1.1c-7.9-1.4-15.2-6.7-18.9-13.8l-1.8-3.4l5.4-0.4
		c5.5-0.3,7.4-1,5.1-1.7c-7.1-2.1-14.2-8-17.4-14.4c-1.3-2.6-3.2-9.5-3.2-11.6c0-0.1,0.7,0.2,1.4,0.6c1.5,0.8,10.3,2.7,10.6,2.4
		c0.1-0.1-1.5-2-3.6-4c-2-2.1-4.5-5.6-5.6-7.7c-1.7-3.6-1.9-4.6-1.9-11c0-5.5,0.3-7.9,1.3-10.5l1.3-3.3l2.7,3.1
		c12.4,14,30.6,23.1,50.4,25.3l3.8,0.4l-0.2-5.3c-0.3-6.5,1-11.2,4.3-16.2c5-7.6,14.2-12.4,22.9-12.2
		C127.3,46,128.5,46.2,129.7,46.5z"/>
</g>
</svg>
