<?xml version="1.0" encoding="utf-8"?>
<!-- Generator: Adobe Illustrator 18.0.0, SVG Export Plug-In . SVG Version: 6.00 Build 0)  -->
<!DOCTYPE svg PUBLIC "-//W3C//DTD SVG 1.1//EN" "http://www.w3.org/Graphics/SVG/1.1/DTD/svg11.dtd">
<svg version="1.1" id="圖層_1" xmlns:sketch="http://www.bohemiancoding.com/sketch/ns"
	 xmlns="http://www.w3.org/2000/svg" xmlns:xlink="http://www.w3.org/1999/xlink" x="0px" y="0px" viewBox="0 0 200 200"
	 enable-background="new 0 0 200 200" xml:space="preserve">
<title>YouTube</title>
<description>Created with Sketch (http://www.bohemiancoding.com/sketch)</description>
<g id="Page-1" sketch:type="MSPage">
	<path id="YouTube" sketch:type="MSShapeGroup" fill="#FFFFFF" d="M100,0C44.8,0,0,44.8,0,100s44.8,100,100,100s100-44.8,100-100
		S155.2,0,100,0L100,0L100,0z M64.1,29.4c0.6,0,1.2,0,1.8,0.1l3,0.2l2.6,9.5c1.5,5.2,2.9,9.3,3.1,9c0.2-0.2,1.5-4.5,2.8-9.5l2.3-9
		l3.7-0.2c2.7-0.2,3.7,0,3.7,0.8c0,0.6-1.9,7.4-4.3,15l-4.3,14v10.9v10.9h-3.8H71l-0.3-11.8l-0.3-11.8l-4.7-13.8
		c-3.3-9.9-4.4-13.9-3.7-14.2C62.3,29.4,63.1,29.4,64.1,29.4L64.1,29.4L64.1,29.4z M114.2,42.5h3.5h3.5v16.2V75h1.8
		c4,0,4.4-1.6,4.4-17.7V42.5h3.5h3.5v19.3v19.4h-3.5c-3,0-3.5-0.2-3.5-1.5c0-2-0.1-1.9-3.6,0.4c-3.4,2.3-6,2.5-8.1,0.4
		c-1.5-1.5-1.5-2.6-1.5-19.7V42.5L114.2,42.5z M98,42.5c2,0,4,0.4,5.4,1.3c3.9,2.3,4.6,4.9,4.6,18.5c0,10.8-0.2,12.6-1.5,14.7
		c-2.9,4.8-9,6.2-13.8,3.3c-4.1-2.5-4.8-5.3-4.8-18.6c0-12.7,0.5-14.7,4.3-17.7C93.6,43,95.8,42.5,98,42.5L98,42.5L98,42.5z
		 M97.9,48.7c-0.4,0-0.9,0.2-1.4,0.5c-1.2,0.7-1.4,2.4-1.6,11.6C94.7,74,94.9,75,97.9,75c1.7,0,2.4-0.4,2.7-1.7
		c0.2-1,0.3-6.6,0.2-12.5c-0.2-9.2-0.4-10.9-1.6-11.6C98.8,48.8,98.4,48.7,97.9,48.7L97.9,48.7L97.9,48.7z M97.7,90
		c21.2,0,44.8,0.9,49,2.1c3.8,1.2,6.8,3.4,8.2,6.3c4.1,8,5.2,42,1.8,59c-0.9,4.3-4.2,9-7.8,10.8c-3.6,1.8-43.1,3.7-63,2.9
		c-16.4-0.6-31.7-1.9-34-2.8c-3.7-1.5-7.3-6.3-8.2-10.9c-1.3-6.4-2.4-25.8-1.9-33.3c1.4-21.6,2.6-26.5,7.3-29.8
		c3.7-2.6,5.9-2.9,28.9-3.9C83.8,90.2,90.6,90,97.7,90L97.7,90L97.7,90z M49.9,102.8v3.9v3.9h4.3h4.3V133v22.4h4.3H67V133v-22.4h4.3
		h4.3v-3.9v-3.9H62.7H49.9L49.9,102.8z M102.6,102.8v26.3v26.3h3.5c2.9,0,3.5-0.2,3.5-1.5c0-1.4,0.1-1.4,2.8,0.4
		c3.5,2.4,5.8,2.4,8.6,0l2.2-1.9l0.2-15.7c0.2-14.6,0.1-15.9-1.3-18.3c-2-3.2-6.1-3.7-9.8-1.2l-1.8,1.2v-7.8v-7.8h-3.9H102.6
		L102.6,102.8z M139.4,115.8c-2.2,0-4.4,0.5-5.8,1.5c-4,2.9-4.7,5.7-4.7,18.4c0,13.2,0.7,15.7,5.4,18.8c3.8,2.5,9.2,2.1,12.4-1.1
		c2.5-2.4,4.1-6.6,3.7-9.7c-0.2-1.7-0.7-1.9-3.9-2.1l-3.7-0.2v3c0,3.4-1.4,5-4,4.6c-2-0.3-2.8-2.4-2.9-7.8l-0.1-3.6l7.2-0.2l7.2-0.2
		l0-7c0-8.1-1.3-11.2-5.2-13.3C143.4,116.2,141.4,115.8,139.4,115.8L139.4,115.8L139.4,115.8z M89.4,115.9v15.1
		c0,14.3-0.1,15.2-1.6,16.7c-0.9,0.9-2.2,1.5-2.9,1.3c-1.2-0.2-1.3-2-1.5-16.7L83.2,116h-3.4c-1.9,0-3.7,0.4-3.9,0.8
		c-0.3,0.5-0.3,8.9,0.1,18.7c0.5,15.9,0.7,18,2,19.3c1.6,1.6,3.9,1.8,6.3,0.6c0.9-0.5,2.5-1.6,3.4-2.5l1.7-1.6v2.1
		c0,1.9,0.2,2.1,3.5,2.1h3.5l0.2-15.5c0.1-8.5,0.2-17.3,0.2-19.5l0-4.1l-3.7-0.2L89.4,115.9L89.4,115.9z M139.9,122.3
		c0.5,0,0.9,0.3,1.7,1.1c0.7,0.7,1.2,2.6,1.2,4.6v3.4h-3c-1.7,0-3.3-0.4-3.5-0.8c-0.9-1.5,0.5-6.9,2-7.7
		C139,122.5,139.5,122.3,139.9,122.3L139.9,122.3L139.9,122.3z M113.4,122.5c0.5,0,0.9,0.3,1.5,0.8c0.9,0.9,1.3,3.4,1.5,10.7
		c0.4,11.5-0.3,14.8-3.1,15.1c-1.1,0.1-2.3-0.2-2.7-0.8c-0.4-0.6-0.6-6-0.4-12.8c0.3-10.9,0.4-11.9,1.9-12.7
		C112.6,122.6,113,122.4,113.4,122.5L113.4,122.5L113.4,122.5z"/>
</g>
</svg>
